<svg width="456" height="936" viewBox="0 0 456 936" fill="none" xmlns="http://www.w3.org/2000/svg">
<rect width="456" height="936" rx="8" fill="#1368E8"/>
<path d="M191.204 458.332V471.332H188.36V458.332H191.204ZM191.204 472.449V480.98H175.97V472.449H191.204ZM178.763 474.684V478.695H188.437V474.684H178.763ZM178.687 459.424C182.216 459.424 184.856 461.658 184.856 464.908C184.856 468.057 182.216 470.342 178.687 470.342C175.132 470.342 172.491 468.057 172.491 464.908C172.491 461.658 175.132 459.424 178.687 459.424ZM178.687 461.811C176.681 461.811 175.233 463.004 175.259 464.908C175.233 466.762 176.681 467.955 178.687 467.955C180.667 467.955 182.089 466.762 182.089 464.908C182.089 463.004 180.667 461.811 178.687 461.811ZM203.239 463.816C203.214 468.031 205.423 472.246 209.155 473.846L207.479 476.105C204.839 474.887 202.896 472.449 201.843 469.453C200.789 472.69 198.821 475.331 196.028 476.639L194.302 474.277C198.136 472.627 200.37 468.234 200.37 463.816V460.16H203.239V463.816ZM213.649 458.307V481.285H210.806V458.307H213.649ZM236.12 458.307V481.285H233.276V458.307H236.12ZM223.755 459.982C227.208 459.982 229.722 463.131 229.747 468.082C229.722 473.084 227.208 476.207 223.755 476.207C220.276 476.207 217.763 473.084 217.763 468.082C217.763 463.131 220.276 459.982 223.755 459.982ZM223.755 462.521C221.8 462.521 220.479 464.578 220.479 468.082C220.479 471.611 221.8 473.668 223.755 473.668C225.685 473.668 227.005 471.611 227.005 468.082C227.005 464.578 225.685 462.521 223.755 462.521ZM251.634 460.465V475.674H240.716V460.465H251.634ZM243.509 462.674V473.414H248.892V462.674H243.509ZM258.591 458.307V481.285H255.747V458.307H258.591ZM270.626 464.832C270.626 468.59 272.835 472.551 276.542 474.1L274.993 476.334C272.276 475.166 270.296 472.754 269.255 469.834C268.188 472.982 266.183 475.623 263.491 476.893L261.866 474.684C265.497 473.008 267.757 468.742 267.757 464.832V462.902H262.704V460.566H275.653V462.902H270.626V464.832ZM281.062 458.307V481.26H278.218V458.307H281.062Z" fill="white"/>
</svg>
