<svg width="100" height="25" viewBox="0 0 100 25" fill="none" xmlns="http://www.w3.org/2000/svg">
<path d="M75.7309 19.48C76.0918 19.2183 76.5014 19.0515 76.9612 18.9842C77.421 18.9153 77.8746 18.9582 78.3202 19.1112C78.7502 19.2581 79.1096 19.4953 79.3999 19.8213C79.6902 20.1473 79.8754 20.5176 79.957 20.9323C80.0386 21.3471 79.9963 21.7511 79.8299 22.1474C79.6636 22.5438 79.3983 22.8728 79.0343 23.133C78.6702 23.3947 78.259 23.56 77.8039 23.6288C77.3473 23.6992 76.9047 23.6595 76.4763 23.5125C76.0306 23.3595 75.6603 23.1192 75.3668 22.7917C75.0734 22.4642 74.8866 22.0939 74.8097 21.6807C74.7328 21.2675 74.7815 20.865 74.9557 20.4717C75.1142 20.0723 75.3731 19.7417 75.7325 19.48H75.7309ZM80.9833 17.3436L77.5858 16.1775L84.0074 0L88.0373 1.38498L80.9833 17.3452V17.3436Z" fill="#1368E8"/>
<path d="M0 6.29439H3.7663V9.13475H4.00013C4.24023 8.492 4.60744 7.93188 5.10177 7.45747C5.5961 6.98306 6.17987 6.6173 6.8531 6.36326C7.52632 6.10769 8.24663 5.98067 9.01087 5.98067C9.2855 5.98067 9.5821 5.98832 9.89909 6.00362C10.2161 6.01893 10.4735 6.03882 10.6712 6.06178V9.45154C10.4562 9.4041 10.1533 9.35666 9.76257 9.31074C9.37181 9.2633 8.99989 9.24035 8.64837 9.24035C7.75544 9.24035 6.94883 9.41481 6.22695 9.76373C5.50508 10.1127 4.9417 10.5978 4.53368 11.2176C4.12567 11.8374 3.92166 12.5352 3.92166 13.3126V24.3313H0V6.29439Z" fill="black"/>
<path d="M14.5584 14.8048C15.9582 14.0044 17.7472 13.533 19.9238 13.3922C20.7728 13.3448 21.6971 13.2973 22.6936 13.2514C23.6901 13.204 25.1087 13.1458 25.1087 13.1458V11.6201C25.1087 10.5871 24.7619 9.79128 24.0667 9.23116C23.3715 8.67105 22.3593 8.39099 21.0301 8.39099C19.9097 8.39099 18.9948 8.60065 18.287 9.01844C17.5793 9.43623 17.121 9.99635 16.9123 10.6973H12.9891C13.1099 9.6964 13.5226 8.80113 14.2272 8.01299C14.9303 7.22486 15.8797 6.60965 17.0755 6.16737C18.2697 5.72663 19.6366 5.50472 21.1745 5.50472C22.4425 5.50472 23.6634 5.68225 24.8372 6.03729C26.0111 6.39234 27.0029 7.04121 27.8157 7.98239C28.6286 8.92509 29.0351 10.2121 29.0351 11.8435V23.9058H25.2688V21.4909H25.115C24.8372 21.9332 24.4402 22.4 23.9255 22.8315C23.4092 23.2631 22.7548 23.6166 21.9623 23.8905C21.1698 24.1645 20.2518 24.3022 19.2113 24.3022C17.9276 24.3022 16.7773 24.0864 15.7589 23.6549C14.7404 23.2233 13.9354 22.5913 13.3469 21.7603C12.7568 20.9293 12.4618 19.9391 12.4618 18.7944C12.4618 16.935 13.1617 15.6051 14.5615 14.8048H14.5584ZM17.4176 20.79C18.1065 21.2415 19.0199 21.4664 20.1545 21.4664C21.1855 21.4664 22.0894 21.2782 22.8662 20.9017C23.6414 20.5253 24.2362 20.0248 24.6473 19.4004C25.0585 18.7761 25.2656 18.1042 25.2656 17.3819V15.7337C24.6065 15.7658 23.0373 15.8592 20.5578 16.0168C19.2317 16.1025 18.2038 16.3795 17.4757 16.8463C16.7475 17.313 16.3835 17.9787 16.3835 18.8419C16.3835 19.705 16.7287 20.3386 17.4176 20.79Z" fill="black"/>
<path d="M37.82 24.3328H33.8967V6.29439H37.663V9.27707H37.9094C38.3833 8.2854 39.1162 7.50797 40.108 6.9448C41.0998 6.38315 42.3191 6.10157 43.7676 6.10157C45.1391 6.10157 46.3302 6.36173 47.344 6.88052C48.3578 7.39932 49.1408 8.16756 49.6979 9.18219C50.2535 10.1984 50.5328 11.4318 50.5328 12.8841V24.3313H46.6096V13.2667C46.6096 12.4036 46.4432 11.6583 46.1121 11.0309C45.781 10.4034 45.3008 9.92289 44.6731 9.58927C44.0453 9.25565 43.2968 9.08884 42.4274 9.08884C41.558 9.08884 40.7263 9.26789 40.0342 9.62447C39.3422 9.98104 38.7992 10.4998 38.4084 11.1778C38.0161 11.8573 37.8215 12.6668 37.8215 13.608V24.3313L37.82 24.3328Z" fill="black"/>
<path d="M55.2391 0.186705H59.1623V13.8223H59.5013L67.4529 6.15207H72.2094L64.1009 13.9523L72.7587 24.3328H67.8515L61.0832 16.1744L59.1608 17.919V24.3328H55.2375V0.186705H55.2391Z" fill="black"/>
<path d="M99.6861 8.8501H95.606V18.773C95.606 19.7065 95.821 20.3401 96.251 20.6737C96.6809 21.0073 97.2726 21.1772 98.0274 21.1864C98.2643 21.1864 98.8214 21.1665 99.6987 21.1282L100.002 21.116V24.1629C99.3566 24.2655 98.5405 24.3175 97.5566 24.3175C96.4848 24.3175 95.504 24.1385 94.6142 23.7788C93.7244 23.4192 93.0151 22.8759 92.4831 22.1459C91.9511 21.4159 91.6859 20.5222 91.6859 19.4647V8.8501H88.7042V6.00975H91.6859V1.74921H95.6091V6.00975H99.6893V8.8501H99.6861Z" fill="black"/>
</svg>
