<svg width="106" height="30" viewBox="0 0 106 30" fill="none" xmlns="http://www.w3.org/2000/svg">
<g clip-path="url(#clip0_718_135)">
<path d="M20.5 6L20.34 6.03L15 8.1L9 6L3.36 7.9C3.15 7.97 3 8.15 3 8.38V23.5C3 23.78 3.22 24 3.5 24L3.66 23.97L9 21.9L15 24L20.64 22.1C20.85 22.03 21 21.85 21 21.62V6.5C21 6.22 20.78 6 20.5 6ZM15 22L9 19.89V8L15 10.11V22Z" fill="white"/>
</g>
<path d="M39.5469 10.8672C39.5469 13.7383 41.0117 16.8047 44 18.0547L42.6523 20.0078C40.5527 19.1191 39.1074 17.3516 38.3164 15.1836C37.5059 17.5371 36.0312 19.4902 33.9414 20.457L32.5156 18.4844C35.4648 17.1758 36.9883 13.875 36.9883 10.8672V9.77344H33.2188V7.74219H43.2578V9.77344H39.5469V10.8672ZM47.5352 6.02344V23.7969H45.0156V6.02344H47.5352ZM64.918 17.332V23.7969H62.4375V19.2852H52.7109V17.332H64.918ZM64.918 6.02344V16.5312H62.4375V14.2852H58.4531C57.6035 15.2031 56.3438 15.75 54.8984 15.75C52.2031 15.75 50.1523 13.8945 50.1719 11.3164C50.1523 8.79688 52.2031 6.96094 54.8984 6.98047C56.3438 6.9707 57.6035 7.50781 58.4531 8.40625H62.4375V6.02344H64.918ZM54.8984 9.07031C53.5117 9.07031 52.5156 9.92969 52.5352 11.3164C52.5156 12.7812 53.5117 13.6211 54.8984 13.6211C56.207 13.6211 57.2227 12.7812 57.2227 11.3164C57.2227 9.92969 56.207 9.07031 54.8984 9.07031ZM59.4883 12.293H62.4375V10.418H59.5078C59.5566 10.7012 59.5859 11.0039 59.5859 11.3164C59.5859 11.6582 59.5469 11.9805 59.4883 12.293ZM81.2266 7.05859C81.2266 9.03125 83.3164 11.2383 87.2227 11.7656L86.2852 13.7383C83.2871 13.2988 81.0801 11.9219 79.957 10.0859C78.8047 11.9414 76.5879 13.3281 73.5898 13.7773L72.6719 11.8242C76.5586 11.2773 78.6484 9.10938 78.668 7.05859V6.47266H81.2266V7.05859ZM88.082 14.7539V16.7461H81.3828V19.8125H78.9219V16.7461H71.8125V14.7539H88.082ZM86.2852 21.4922V23.4844H73.7266V18.2695H76.207V21.4922H86.2852ZM94.918 6.76562C97.6328 6.74609 99.6055 8.28906 99.6055 10.5352C99.6055 12.7617 97.6328 14.3242 94.918 14.3047C92.2031 14.3242 90.2305 12.7617 90.25 10.5352C90.2305 8.28906 92.2031 6.74609 94.918 6.76562ZM94.918 8.75781C93.5898 8.75781 92.6523 9.40234 92.6523 10.5352C92.6523 11.6484 93.5898 12.293 94.918 12.2734C96.2852 12.293 97.2422 11.6484 97.2422 10.5352C97.2422 9.40234 96.2852 8.75781 94.918 8.75781ZM104.098 6.04297V23.7969H101.637V6.04297H104.098ZM89.1562 15.3984C92.3008 15.3984 96.7734 15.3203 100.562 14.7539L100.719 16.5898C99.2539 16.8828 97.75 17.0684 96.2656 17.1758V23.2695H93.7852V17.332C92.2227 17.4004 90.748 17.4102 89.4688 17.4297L89.1562 15.3984Z" fill="white"/>
<defs>
<clipPath id="clip0_718_135">
<rect width="24" height="24" fill="white" transform="translate(0 3)"/>
</clipPath>
</defs>
</svg>
