<svg width="32" height="32" viewBox="0 0 32 32" fill="none" xmlns="http://www.w3.org/2000/svg">
<g clip-path="url(#clip0_718_7308)">
<path d="M31.5 16C31.5 24.5604 24.5604 31.5 16 31.5C7.43959 31.5 0.5 24.5604 0.5 16C0.5 7.43959 7.43959 0.5 16 0.5C24.5604 0.5 31.5 7.43959 31.5 16Z" fill="#BDBDBD" stroke="#C0C0C0"/>
<path d="M14.5594 16.9139C14.7242 16.3571 14.9578 15.911 15.2592 15.576C15.561 15.2409 15.9667 14.9136 16.4775 14.5939C16.9981 14.2691 17.4042 13.9133 17.6957 13.5267C17.9869 13.1401 18.1328 12.6915 18.1328 12.1811C18.1328 11.7789 18.0387 11.4259 17.8506 11.1216C17.6624 10.8176 17.4045 10.583 17.0771 10.4179C16.7498 10.2531 16.3875 10.1705 15.9904 10.1705C15.6141 10.1705 15.2621 10.2505 14.9347 10.4102C14.6074 10.5702 14.3379 10.8125 14.1264 11.1373C13.9149 11.4621 13.7965 11.8566 13.7706 12.3206H11.0327C11.0583 11.3721 11.2928 10.5651 11.7363 9.89983C12.1799 9.23487 12.7728 8.73343 13.5152 8.39551C14.2576 8.05791 15.0877 7.88895 16.0055 7.88895C16.985 7.88895 17.8512 8.06303 18.6042 8.41087C19.3568 8.75903 19.9421 9.25279 20.3597 9.89183C20.7773 10.5312 20.9863 11.2787 20.9863 12.1347C20.9863 12.9907 20.7891 13.7177 20.3946 14.3312C20 14.9449 19.4291 15.4758 18.6816 15.9245C18.2432 16.1875 17.8954 16.4582 17.6375 16.7366C17.3795 17.015 17.1875 17.3411 17.0611 17.7149C16.9347 18.0886 16.8688 18.5488 16.864 19.0953V19.2963H14.304V19.0953C14.3091 18.1981 14.3943 17.4713 14.5594 16.9142V16.9139ZM14.1667 21.5769C14.3187 21.319 14.5251 21.1155 14.7856 20.9657C15.0458 20.8163 15.3309 20.7414 15.6403 20.7414C15.9498 20.7414 16.2192 20.8163 16.4797 20.9657C16.7399 21.1155 16.9475 21.319 17.1024 21.5769C17.257 21.8349 17.3344 22.1158 17.3344 22.4201C17.3344 22.7245 17.257 23.0067 17.1024 23.2672C16.9479 23.5277 16.7402 23.7341 16.4797 23.8861C16.2192 24.0381 15.9395 24.1142 15.6403 24.1142C15.3411 24.1142 15.0461 24.0381 14.7856 23.8861C14.5251 23.7341 14.3187 23.5277 14.1667 23.2672C14.0147 23.007 13.9411 22.7245 13.9463 22.4201C13.9411 22.1158 14.0144 21.8349 14.1667 21.5769Z" fill="white"/>
</g>
<defs>
<clipPath id="clip0_718_7308">
<rect width="32" height="32" fill="white"/>
</clipPath>
</defs>
</svg>
