<svg width="200" height="49" viewBox="0 0 200 49" fill="none" xmlns="http://www.w3.org/2000/svg">
<g clip-path="url(#clip0_1515_12663)">
<path d="M151.462 38.96C152.184 38.4367 153.003 38.103 153.922 37.9684C154.842 37.8306 155.749 37.9163 156.64 38.2224C157.5 38.5162 158.219 38.9907 158.8 39.6426C159.38 40.2945 159.751 41.0352 159.914 41.8647C160.077 42.6941 159.993 43.5022 159.66 44.2949C159.327 45.0876 158.797 45.7457 158.069 46.266C157.34 46.7894 156.518 47.12 155.608 47.2577C154.695 47.3985 153.809 47.3189 152.953 47.0251C152.061 46.719 151.321 46.2385 150.734 45.5835C150.147 44.9285 149.773 44.1878 149.619 43.3614C149.466 42.535 149.563 41.73 149.911 40.9434C150.228 40.1446 150.746 39.4834 151.465 38.96H151.462ZM161.967 34.6873L155.172 32.355L168.015 0L176.075 2.76996L161.967 34.6903V34.6873Z" fill="#1368E8"/>
<path d="M0 12.5888H7.5326V18.2695H8.00025C8.48045 16.984 9.21488 15.8638 10.2035 14.915C11.1922 13.9661 12.3597 13.2346 13.7062 12.7265C15.0526 12.2154 16.4933 11.9614 18.0217 11.9614C18.571 11.9614 19.1642 11.9767 19.7982 12.0073C20.4322 12.0379 20.9469 12.0777 21.3424 12.1236V18.9031C20.9124 18.8082 20.3066 18.7133 19.5251 18.6215C18.7436 18.5266 17.9998 18.4807 17.2967 18.4807C15.5109 18.4807 13.8977 18.8296 12.4539 19.5275C11.0102 20.2253 9.8834 21.1956 9.06737 22.4352C8.25134 23.6748 7.84332 25.0705 7.84332 26.6253V48.6626H0V12.5888Z" fill="#191919"/>
<path d="M29.1165 29.6095C31.9161 28.0088 35.4941 27.0661 39.8473 26.7845C41.5453 26.6896 43.3939 26.5947 45.3869 26.5029C47.3799 26.408 50.2172 26.2917 50.2172 26.2917V23.2401C50.2172 21.1741 49.5236 19.5826 48.1332 18.4623C46.7428 17.3421 44.7184 16.782 42.06 16.782C39.8191 16.782 37.9893 17.2013 36.5738 18.0369C35.1583 18.8725 34.2418 19.9927 33.8244 21.3945H25.9779C26.2196 19.3928 27.045 17.6023 28.4542 16.026C29.8603 14.4497 31.7592 13.2193 34.1508 12.3348C36.5392 11.4533 39.2729 11.0095 42.3488 11.0095C44.8847 11.0095 47.3266 11.3645 49.6742 12.0746C52.0219 12.7847 54.0055 14.0824 55.6312 15.9648C57.257 17.8502 58.0699 20.4243 58.0699 23.687V47.8117H50.5373V42.9819H50.2297C49.6742 43.8664 48.8802 44.7999 47.8507 45.6631C46.8181 46.5262 45.5093 47.2332 43.9243 47.7811C42.3393 48.3289 40.5033 48.6044 38.4224 48.6044C35.855 48.6044 33.5544 48.1729 31.5175 47.3097C29.4806 46.4466 27.8705 45.1825 26.6935 43.5205C25.5134 41.8586 24.9233 39.8783 24.9233 37.5888C24.9233 33.8701 26.3231 31.2103 29.1228 29.6095H29.1165ZM34.835 41.58C36.2128 42.483 38.0395 42.9329 40.3087 42.9329C42.3707 42.9329 44.1786 42.5564 45.7322 41.8035C47.2826 41.0505 48.4721 40.0497 49.2944 38.8009C50.1168 37.5521 50.531 36.2085 50.531 34.7638V31.4674C49.2128 31.5317 46.0743 31.7184 41.1153 32.0336C38.4632 32.205 36.4074 32.759 34.9511 33.6925C33.4948 34.6261 32.7667 35.9575 32.7667 37.6837C32.7667 39.41 33.4571 40.6771 34.835 41.58Z" fill="#191919"/>
<path d="M75.6399 48.6656H67.7935V12.5888H75.3261V18.5541H75.8188C76.7667 16.5708 78.2324 15.0159 80.216 13.8896C82.1996 12.7663 84.6382 12.2031 87.5352 12.2031C90.2783 12.2031 92.6605 12.7234 94.688 13.761C96.7155 14.7986 98.2817 16.3351 99.3959 18.3644C100.507 20.3967 101.066 22.8637 101.066 25.7683V48.6626H93.2191V26.5335C93.2191 24.8072 92.8864 23.3166 92.2242 22.0617C91.562 20.8068 90.6016 19.8458 89.3461 19.1785C88.0907 18.5113 86.5936 18.1777 84.8548 18.1777C83.116 18.1777 81.4526 18.5358 80.0685 19.2489C78.6843 19.9621 77.5984 20.9997 76.8169 22.3556C76.0322 23.7145 75.6431 25.3337 75.6431 27.216V48.6626L75.6399 48.6656Z" fill="#191919"/>
<path d="M110.478 0.373413H118.325V27.6445H119.003L134.906 12.3041H144.419L128.202 27.9047L145.517 48.6656H135.703L122.166 32.3489L118.322 35.8381V48.6656H110.475V0.373413H110.478Z" fill="#191919"/>
<path d="M199.372 17.7002H191.212V37.546C191.212 39.413 191.642 40.6802 192.502 41.3474C193.362 42.0147 194.545 42.3544 196.055 42.3728C196.528 42.3728 197.643 42.333 199.397 42.2565L200.003 42.232V48.3259C198.713 48.5309 197.081 48.635 195.113 48.635C192.969 48.635 191.008 48.2769 189.228 47.5576C187.449 46.8384 186.03 45.7518 184.966 44.2918C183.902 42.8319 183.372 41.0444 183.372 38.9294V17.7002H177.408V12.0195H183.372V3.49841H191.218V12.0195H199.378V17.7002H199.372Z" fill="#191919"/>
</g>
<defs>
<clipPath id="clip0_1515_12663">
<rect width="200" height="48.6656" fill="white"/>
</clipPath>
</defs>
</svg>
