<svg width="64" height="16" viewBox="0 0 64 16" fill="none" xmlns="http://www.w3.org/2000/svg">
<g clip-path="url(#clip0_1388_324)">
<path d="M0 15.9987V7.94687C0 5.07199 1.46112 3.52319 4.83328 3.52319H6.2496V5.51423H4.72064C3.03488 5.51423 2.24768 6.39935 2.24768 7.94751V15.9994H0V15.9987Z" fill="#191919"/>
<path d="M10.9702 15.9987C8.49728 15.9987 7.59808 15.0035 7.59808 13.1232V10.9555C7.59808 9.07519 8.49728 8.07999 10.9702 8.07999H16.7251V6.57599C16.7251 5.80159 16.3878 5.47007 15.6013 5.47007H8.45248V3.52319H15.6013C18.0742 3.52319 18.9734 4.51839 18.9734 6.39871V13.1232C18.9734 15.0035 18.0742 15.9987 15.6013 15.9987H10.9702ZM16.7258 10.0269H10.9709C10.1843 10.0269 9.84704 10.3584 9.84704 11.1328V12.9466C9.84704 13.721 10.1843 14.0525 10.9709 14.0525H15.6019C16.3885 14.0525 16.7258 13.721 16.7258 12.9466V10.0269Z" fill="#191919"/>
<path d="M30.3488 15.9987V7.34975C30.3488 6.13311 29.7869 5.46943 28.663 5.46943H24.3693C23.7626 5.46943 23.4701 5.75679 23.4701 6.35391V15.9981H21.2218V5.95647C21.2218 4.18687 21.8963 3.52319 23.6947 3.52319H28.663C31.3606 3.52319 32.5971 4.96127 32.5971 7.17311V15.9987H30.3488Z" fill="#191919"/>
<path d="M43.6122 15.9987L39.0938 9.82721L37.3178 11.3312V15.9987H35.0701V0.00640869H37.3178V8.76609L43.1629 3.52385H45.7478L40.6221 8.45633L45.9725 15.9994H43.6122V15.9987Z" fill="#191919"/>
<path d="M50.3104 13.5866C50.8531 13.7299 50.9325 13.865 50.7872 14.3994L50.496 15.4675C50.3507 16.0019 50.2131 16.08 49.6698 15.9366L48.5843 15.6506C48.0416 15.5072 47.9622 15.3722 48.1075 14.8378L48.3987 13.7696C48.544 13.2352 48.6816 13.1571 49.225 13.3005L50.3104 13.5866ZM54.633 0L51.2218 12.5261L48.9747 11.9334L52.2246 0H54.633Z" fill="#1368E8"/>
<path d="M62.5837 15.9987C59.2115 15.9987 57.7504 14.4506 57.7504 11.575V5.51425H55.3222V3.52321H57.7504V0.00640869H59.9987V3.52321H64V5.51425H59.9987V11.575C59.9987 13.1232 60.7853 14.0083 62.4717 14.0083H64.0006V15.9994H62.5843L62.5837 15.9987Z" fill="#191919"/>
</g>
<defs>
<clipPath id="clip0_1388_324">
<rect width="64" height="16" fill="white"/>
</clipPath>
</defs>
</svg>
