<?xml version="1.0" encoding="UTF-8"?>
<svg id="_레이어_2" data-name="레이어 2" xmlns="http://www.w3.org/2000/svg" viewBox="0 0 818.56 204.64" width="64" height="16">
  <defs>
    <style>
      .cls-1 {
        fill: #222;
      }

      .cls-2 {
        fill: #2963ae;
      }
    </style>
  </defs>
  <g id="_레이어_1-2" data-name="레이어 1">
    <g id="rankit-logo">
      <path class="cls-1" d="M0,204.63V101.65c0-36.78,18.69-56.58,61.82-56.58h18.11v25.46h-19.55c-21.56,0-31.63,11.32-31.63,31.12v102.98H0Z"/>
      <path class="cls-1" d="M140.31,204.63c-31.63,0-43.13-12.73-43.13-36.78v-27.73c0-24.05,11.5-36.78,43.13-36.78h73.61v-19.24c0-9.9-4.31-14.14-14.38-14.14H108.11v-24.9h91.43c31.63,0,43.13,12.73,43.13,36.78v86.01c0,24.05-11.5,36.78-43.13,36.78h-59.23Zm73.61-76.39h-73.61c-10.06,0-14.38,4.24-14.38,14.15v23.2c0,9.9,4.31,14.15,14.38,14.15h59.23c10.06,0,14.38-4.24,14.38-14.15v-37.34Z"/>
      <path class="cls-1" d="M388.16,204.63V94.01c0-15.56-7.19-24.05-21.56-24.05h-54.92c-7.76,0-11.5,3.68-11.5,11.32v123.35h-28.75V76.18c0-22.63,8.63-31.12,31.63-31.12h63.54c34.5,0,50.32,18.39,50.32,46.68v112.88h-28.75Z"/>
      <path class="cls-1" d="M557.8,204.63l-57.79-78.93-22.71,19.24v59.69h-28.75V.08h28.75V112.11l74.76-67.05h33.06l-65.56,63.09,68.43,96.47h-30.19Z"/>
      <path class="cls-2" d="M643.47,173.77c6.94,1.83,7.96,3.56,6.1,10.4l-3.72,13.66c-1.86,6.83-3.62,7.83-10.56,6l-13.89-3.66c-6.94-1.83-7.96-3.56-6.1-10.4l3.72-13.66c1.86-6.83,3.62-7.83,10.56-6l13.89,3.66ZM698.76,0l-43.63,160.21-28.74-7.58L667.95,0h30.81Z"/>
      <path class="cls-1" d="M800.45,204.63c-43.13,0-61.82-19.8-61.82-56.58V70.53h-31.05v-25.46h31.05V.08h28.75V45.06h51.18v25.46h-51.18v77.52c0,19.8,10.06,31.12,31.63,31.12h19.55v25.46h-18.12Z"/>
    </g>
  </g>
</svg>