<?xml version="1.0" encoding="UTF-8"?>
<svg id="_레이어_2" data-name="레이어 2" xmlns="http://www.w3.org/2000/svg" viewBox="0 0 774.66 775.56">
  <defs>
    <style>
      .cls-1 {
        fill: #ffc300;
        stroke: #ffc300;
        stroke-linecap: round;
        stroke-linejoin: round;
        stroke-width: 50px;
      }

      .cls-2 {
        fill: #fff;
      }
    </style>
  </defs>
  <g id="_레이어_1-2" data-name="레이어 1">
    <g>
      <polygon class="cls-1" points="25 25 25 547.47 387.33 750.56 749.66 547.47 749.66 25 25 25"/>
      <path class="cls-2" d="m652.03,362.13c-.01-.5-.04-1-.06-1.5-.05-1.4-.11-2.8-.19-4.18-.03-.49-.07-.98-.1-1.47-.09-1.41-.19-2.8-.32-4.19-.03-.39-.07-.77-.11-1.16-.14-1.52-.31-3.03-.49-4.52-.03-.22-.05-.44-.08-.65-2.4-19.17-7.78-36.05-15.78-50.85l-31.35-166.17-66.56,92.38c-40.74-13.41-89.73-19.11-142.65-19.53-1.18-.01-2.36-.02-3.54-.02-.92,0-1.84-.02-2.76-.02-.24,0-.48,0-.72,0-.24,0-.48,0-.72,0-.92,0-1.84.01-2.76.02-1.18,0-2.36.01-3.54.02-52.92.42-101.91,6.12-142.65,19.53l-66.56-92.38-31.35,166.17c-8,14.79-13.38,31.68-15.78,50.85-.03.22-.06.44-.08.65-.18,1.49-.34,3-.49,4.52-.04.39-.08.77-.11,1.16-.12,1.38-.22,2.78-.32,4.19-.03.49-.07.98-.1,1.47-.08,1.38-.14,2.78-.19,4.18-.02.5-.05,1-.06,1.5-.05,1.89-.08,3.79-.08,5.72,0,128.36,118.55,159.59,264.78,159.59s264.78-31.24,264.78-159.59c0-1.93-.03-3.84-.08-5.72Z"/>
    </g>
  </g>
</svg>