<svg width="300" height="73" viewBox="0 0 300 73" fill="none" xmlns="http://www.w3.org/2000/svg">
<g clip-path="url(#clip0_177_3724)">
<path d="M227.193 58.4401C228.276 57.655 229.504 57.1546 230.884 56.9526C232.263 56.746 233.624 56.8745 234.961 57.3336C236.251 57.7744 237.329 58.486 238.2 59.4639C239.071 60.4418 239.626 61.5528 239.871 62.797C240.116 64.0412 239.989 65.2533 239.49 66.4423C238.991 67.6314 238.195 68.6185 237.103 69.399C236.011 70.1841 234.777 70.6799 233.412 70.8865C232.042 71.0977 230.714 70.9783 229.429 70.5376C228.092 70.0785 226.981 69.3577 226.101 68.3752C225.22 67.3927 224.66 66.2817 224.429 65.0421C224.199 63.8025 224.344 62.595 224.867 61.4151C225.343 60.2168 226.119 59.2251 227.197 58.4401H227.193ZM242.95 52.0309L232.757 48.5325L252.022 0L264.112 4.15494L242.95 52.0355V52.0309Z" fill="#1368E8"/>
<path d="M0 18.8832H11.2989V27.4043H12.0004C12.7207 25.476 13.8223 23.7957 15.3053 22.3724C16.7883 20.9492 18.5396 19.8519 20.5593 19.0898C22.579 18.3231 24.7399 17.942 27.0326 17.942C27.8565 17.942 28.7463 17.965 29.6973 18.0109C30.6483 18.0568 31.4204 18.1165 32.0136 18.1853V28.3546C31.3686 28.2123 30.46 28.07 29.2877 27.9322C28.1154 27.7899 26.9997 27.7211 25.9451 27.7211C23.2663 27.7211 20.8465 28.2444 18.6809 29.2912C16.5152 30.338 14.8251 31.7934 13.6011 33.6527C12.377 35.5121 11.765 37.6057 11.765 39.938V72.9939H0V18.8832Z" fill="black"/>
<path d="M43.675 44.4143C47.8744 42.0131 53.2414 40.5991 59.7712 40.1767C62.3182 40.0343 65.0911 39.892 68.0806 39.7543C71.0701 39.612 75.326 39.4375 75.326 39.4375V34.8602C75.326 31.7612 74.2856 29.3738 72.2 27.6935C70.1144 26.0131 67.0778 25.173 63.0903 25.173C59.7288 25.173 56.9841 25.8019 54.8609 27.0553C52.7376 28.3087 51.3629 29.989 50.7368 32.0918H38.9671C39.3296 29.0892 40.5678 26.4034 42.6816 24.039C44.7907 21.6746 47.639 19.8289 51.2264 18.5021C54.8091 17.1799 58.9097 16.5142 63.5234 16.5142C67.3273 16.5142 70.9901 17.0467 74.5116 18.1119C78.0331 19.177 81.0084 21.1236 83.4471 23.9471C85.8858 26.7753 87.1051 30.6364 87.1051 35.5305V71.7175H75.8062V64.4727H75.3449C74.5116 65.7996 73.3205 67.1999 71.7763 68.4946C70.2274 69.7892 68.2642 70.8498 65.8867 71.6716C63.5093 72.4934 60.7551 72.9066 57.6338 72.9066C53.7828 72.9066 50.3319 72.2593 47.2765 70.9646C44.2211 69.6699 41.8059 67.7738 40.0405 65.2808C38.2703 62.7878 37.3853 59.8174 37.3853 56.3832C37.3853 50.8051 39.485 46.8154 43.6844 44.4143H43.675ZM52.2527 62.37C54.3195 63.7244 57.0595 64.3993 60.4633 64.3993C63.5563 64.3993 66.2681 63.8346 68.5985 62.7052C70.9242 61.5758 72.7084 60.0745 73.9419 58.2013C75.1754 56.3281 75.7968 54.3127 75.7968 52.1457V47.201C73.8195 47.2975 69.1116 47.5775 61.6732 48.0504C57.695 48.3075 54.6114 49.1385 52.4269 50.5388C50.2425 51.9391 49.1502 53.9362 49.1502 56.5256C49.1502 59.1149 50.186 61.0157 52.2527 62.37Z" fill="black"/>
<path d="M113.46 72.9984H101.69V18.8832H112.989V27.8312H113.728C115.15 24.8562 117.348 22.5239 120.324 20.8344C123.299 19.1495 126.957 18.3047 131.302 18.3047C135.417 18.3047 138.99 19.0852 142.032 20.6416C145.073 22.1979 147.422 24.5027 149.094 27.5466C150.76 30.5951 151.598 34.2955 151.598 38.6524V72.9938H139.828V39.8002C139.828 37.2108 139.329 34.975 138.336 33.0926C137.343 31.2103 135.902 29.7687 134.019 28.7678C132.136 27.7669 129.89 27.2665 127.282 27.2665C124.674 27.2665 122.179 27.8037 120.102 28.8734C118.026 29.9431 116.397 31.4995 115.225 33.5334C114.048 35.5718 113.464 38.0005 113.464 40.824V72.9938L113.46 72.9984Z" fill="black"/>
<path d="M165.717 0.56012H177.487V41.4668H178.504L202.359 18.4562H216.628L192.302 41.857L218.276 72.9984H203.554L183.249 48.5233L177.482 53.7571V72.9984H165.712V0.56012H165.717Z" fill="black"/>
<path d="M299.058 26.5503H286.818V56.319C286.818 59.1195 287.463 61.0203 288.753 62.0211C290.043 63.022 291.818 63.5316 294.082 63.5591C294.793 63.5591 296.464 63.4994 299.096 63.3847L300.005 63.3479V72.4888C298.07 72.7964 295.622 72.9525 292.67 72.9525C289.454 72.9525 286.512 72.4154 283.843 71.3365C281.173 70.2575 279.045 68.6277 277.449 66.4377C275.853 64.2478 275.058 61.5666 275.058 58.3941V26.5503H266.113V18.0292H275.058V5.24762H286.827V18.0292H299.068V26.5503H299.058Z" fill="black"/>
</g>
<defs>
<clipPath id="clip0_177_3724">
<rect width="300" height="72.9984" fill="white"/>
</clipPath>
</defs>
</svg>
